<svg height="512" viewBox="0 0 64 64" width="512" xmlns="http://www.w3.org/2000/svg"><g id="Laptop"><path d="m6 53h-3v2a6 6 0 0 0 6 6h46a6 6 0 0 0 6-6v-2z" fill="#1a6fb0"/><path d="m26 55a2 2 0 0 0 2 2h8a2 2 0 0 0 2-2v-2h-12z" fill="#ffcd00"/><path d="m58 17v36h-52v-36a4 4 0 0 1 4-4h44a4 4 0 0 1 4 4z" fill="#1e81ce"/><path d="m10 17h44v32h-44z" fill="#ffcd00"/><path d="m14 21h36v6h-36z" fill="#006df0"/><path d="m14 27h36v22h-36z" fill="#ffdaaa"/><path d="m20 33h8v8h-8z" fill="#d80027"/><path d="m21 49h29v-22c0 12.16-12.971 22-29 22z" fill="#ffc477"/><path d="m18 25h-1a1 1 0 0 1 0-2h1a1 1 0 0 1 0 2z"/><path d="m22 25h-1a1 1 0 0 1 0-2h1a1 1 0 0 1 0 2z"/><path d="m26 25h-1a1 1 0 0 1 0-2h1a1 1 0 0 1 0 2z"/><path d="m28 42h-8a1 1 0 0 1 -1-1v-8a1 1 0 0 1 1-1h8a1 1 0 0 1 1 1v8a1 1 0 0 1 -1 1zm-7-2h6v-6h-6z"/><path d="m44 34h-12a1 1 0 0 1 0-2h12a1 1 0 0 1 0 2z"/><path d="m44 38h-12a1 1 0 0 1 0-2h12a1 1 0 0 1 0 2z"/><path d="m44 42h-12a1 1 0 0 1 0-2h12a1 1 0 0 1 0 2z"/><path d="m61 52h-2v-35a5.006 5.006 0 0 0 -5-5h-44a5.006 5.006 0 0 0 -5 5v35h-2a1 1 0 0 0 -1 1v2a7.008 7.008 0 0 0 7 7h46a7.008 7.008 0 0 0 7-7v-2a1 1 0 0 0 -1-1zm-54-35a3 3 0 0 1 3-3h44a3 3 0 0 1 3 3v35h-50zm20 37h10v1a1 1 0 0 1 -1 1h-8a1 1 0 0 1 -1-1zm33 1a5.006 5.006 0 0 1 -5 5h-46a5.006 5.006 0 0 1 -5-5v-1h21v1a3 3 0 0 0 3 3h8a3 3 0 0 0 3-3v-1h21z"/><path d="m54 50a1 1 0 0 0 1-1v-32a1 1 0 0 0 -1-1h-44a1 1 0 0 0 -1 1v32a1 1 0 0 0 1 1zm-5-24h-34v-4h34zm-38-8h42v30h-2v-27a1 1 0 0 0 -1-1h-36a1 1 0 0 0 -1 1v27h-2zm4 30v-20h34v20z"/><path d="m44 44h-24a1 1 0 0 0 0 2h24a1 1 0 0 0 0-2z"/></g></svg>